<?xml version="1.0" encoding="UTF-8" standalone="no"?>
<!-- Created with Inkscape (http://www.inkscape.org/) -->

<svg
   width="800"
   height="480"
   viewBox="0 0 211.66667 127"
   version="1.1"
   id="svg5"
   xml:space="preserve"
   inkscape:version="1.2.2 (b0a8486541, 2022-12-01)"
   sodipodi:docname="template.svg"
   inkscape:export-filename="install_start.png"
   inkscape:export-xdpi="96"
   inkscape:export-ydpi="96"
   xmlns:inkscape="http://www.inkscape.org/namespaces/inkscape"
   xmlns:sodipodi="http://sodipodi.sourceforge.net/DTD/sodipodi-0.dtd"
   xmlns="http://www.w3.org/2000/svg"
   xmlns:svg="http://www.w3.org/2000/svg"><sodipodi:namedview
     id="namedview7"
     pagecolor="#ffffff"
     bordercolor="#666666"
     borderopacity="1.0"
     inkscape:showpageshadow="2"
     inkscape:pageopacity="0.0"
     inkscape:pagecheckerboard="0"
     inkscape:deskcolor="#d1d1d1"
     inkscape:document-units="mm"
     showgrid="false"
     showguides="true"
     inkscape:zoom="0.914906"
     inkscape:cx="40.441313"
     inkscape:cy="221.33421"
     inkscape:window-width="3440"
     inkscape:window-height="1382"
     inkscape:window-x="0"
     inkscape:window-y="0"
     inkscape:window-maximized="1"
     inkscape:current-layer="g539"><sodipodi:guide
       position="90.517041,68.791665"
       orientation="0,1"
       id="guide791"
       inkscape:locked="false"
       inkscape:label=""
       inkscape:color="rgb(0,134,229)" /><sodipodi:guide
       position="46.278704,86.984943"
       orientation="-1,0"
       id="guide1148"
       inkscape:locked="false"
       inkscape:label=""
       inkscape:color="rgb(0,134,229)" /><sodipodi:guide
       position="-64.434565,117.13926"
       orientation="0,-1"
       id="guide1253"
       inkscape:locked="false" /><sodipodi:guide
       position="166.6875,127"
       orientation="-1,0"
       id="guide1255"
       inkscape:locked="false"
       inkscape:label=""
       inkscape:color="rgb(0,134,229)" /><sodipodi:guide
       position="105.83333,-29.74197"
       orientation="-1,0"
       id="guide4161"
       inkscape:locked="false"
       inkscape:label=""
       inkscape:color="rgb(0,134,229)" /><sodipodi:guide
       position="272.99708,58.208334"
       orientation="0,1"
       id="guide5732"
       inkscape:locked="false"
       inkscape:label=""
       inkscape:color="rgb(0,134,229)" /><sodipodi:guide
       position="10.583333,9.5881207"
       orientation="-1,0"
       id="guide5786"
       inkscape:locked="false"
       inkscape:label=""
       inkscape:color="rgb(0,134,229)" /><sodipodi:guide
       position="201.08333,8.4313535"
       orientation="-1,0"
       id="guide5788"
       inkscape:locked="false"
       inkscape:label=""
       inkscape:color="rgb(0,134,229)" /><sodipodi:guide
       position="261.42941,10.583333"
       orientation="0,1"
       id="guide5790"
       inkscape:locked="false"
       inkscape:label=""
       inkscape:color="rgb(0,134,229)" /></sodipodi:namedview><defs
     id="defs2"><rect
       x="39.999998"
       y="260"
       width="719.99998"
       height="180"
       id="rect5911" /><rect
       x="114.02165"
       y="253.00631"
       width="666.60921"
       height="184.99955"
       id="rect5728" /><rect
       x="111.05911"
       y="280.60604"
       width="595.65665"
       height="74.742125"
       id="rect4218" /><rect
       x="39.999998"
       y="260"
       width="719.99998"
       height="180"
       id="rect5921" /><rect
       x="39.999998"
       y="260"
       width="719.99998"
       height="180"
       id="rect5929" /><rect
       x="39.999998"
       y="260"
       width="719.99998"
       height="180"
       id="rect5937" /><rect
       x="39.999998"
       y="260"
       width="719.99998"
       height="180"
       id="rect5945" /><rect
       x="39.999998"
       y="260"
       width="719.99998"
       height="180"
       id="rect5953" /><rect
       x="39.999998"
       y="260"
       width="719.99998"
       height="180"
       id="rect330" /><rect
       x="39.999998"
       y="260"
       width="719.99998"
       height="180"
       id="rect540" /><rect
       x="39.999998"
       y="260"
       width="719.99998"
       height="180"
       id="rect541" /></defs><g
     inkscape:label="Background"
     inkscape:groupmode="layer"
     id="layer1"><rect
       style="fill:#000000;fill-opacity:1;stroke:none;stroke-width:9.759;stroke-linecap:round"
       id="rect789"
       width="211.66666"
       height="127"
       x="0"
       y="0" /></g><g
     inkscape:groupmode="layer"
     id="layer2"
     inkscape:label="Logos"><g
       style="clip-rule:evenodd;fill-rule:evenodd;stroke-linejoin:round;stroke-miterlimit:1.41421"
       id="g1079"
       transform="matrix(0.07960292,0,0,0.07960292,75.663475,12.510843)"
       inkscape:label="Klipper"><path
         style="fill:#3c4b5a"
         d="m 30,34 v 140 l 260,255 115,-5 h 80 L 730,174 V 34 H 720 L 385,374 40,34 Z"
         id="path2"
         inkscape:connector-curvature="0"
         sodipodi:nodetypes="ccccccccccc" /><path
         style="fill:#3c4b5a;stroke-width:1.03281"
         d="m 140,418 -58,57 1,25 v 19 l 57,57 h 27 v -1 L 91,496.5 167,419 v -1 z"
         id="path8"
         inkscape:connector-curvature="0"
         sodipodi:nodetypes="ccccccccccc" /><g
         transform="translate(-1.08348e-4,0.048)"
         id="g17">
                <path
   d="m 83.041215,464.92108 h 0.001 l -0.04211,27.03092 h 11 l 73.000005,-74 v 14.301 l -63,64.199 63,65.5 v 14 l -73.000002,-75 h -13 c -2,0 -4,-2 -4,-4 h -2 v -33 h 2 c 0,-1 1,-2 3.00004,-2 1.99996,0 2.99996,1 2.99996,2 z"
   style="fill:#b12f35"
   id="path15"
   inkscape:connector-curvature="0"
   sodipodi:nodetypes="cccccccccccccccccc" />
            </g><g
         id="path839"
         transform="matrix(1.03281,0,0,1.0326797,24.31099,-21.921569)">
                <rect
   x="21"
   y="426"
   width="30.015202"
   height="153"
   style="fill:#3c4b5a;fill-rule:nonzero"
   id="rect12" />
            </g><rect
         x="247"
         y="469"
         width="24"
         height="107"
         style="fill:#3c4b5a;stroke-width:1.1961"
         id="rect23" /><path
         d="m 371.98888,521.45953 c 0,-10.8903 -2.45322,-19.36013 -7.36207,-25.4107 -4.90765,-6.05057 -12.80741,-9.07465 -23.69929,-9.07465 -2.28639,0 -4.6724,0.10081 -7.16044,0.30241 -2.48802,0.20161 -4.94125,0.63842 -7.36207,1.31044 v 60.29926 c 2.15197,1.47844 5.00967,2.85727 8.57188,4.13411 3.56342,1.27684 7.36208,1.91526 11.39597,1.91526 8.87554,0 15.36385,-3.02409 19.46496,-9.07465 4.10111,-6.05057 6.15106,-14.18439 6.15106,-24.40148 z M 397,521.05632 c 0,8.06663 -1.04178,15.46123 -3.12654,22.18261 -2.08476,6.72259 -5.07568,12.50434 -8.97515,17.34409 -3.89947,4.83973 -8.77472,8.60423 -14.62333,11.29351 -5.8498,2.68927 -12.47254,4.0333 -19.86702,4.0333 -4.97606,0 -9.54765,-0.60481 -13.71597,-1.81445 -4.16832,-1.21082 -7.59731,-2.55487 -10.28698,-4.03451 V 611 H 302 V 471.64736 c 4.97486,-1.34524 11.09352,-2.62207 18.35477,-3.83171 C 327.61602,466.60482 335.28055,466 343.34834,466 c 8.33664,0 15.79953,1.27684 22.38866,3.83171 6.58794,2.55487 12.20251,6.21857 16.84131,10.9911 4.6388,4.77253 8.20221,10.5543 10.69024,17.34408 2.48684,6.78859 3.73145,14.4184 3.73145,22.88943 z"
         style="fill:#3c4b5a;fill-rule:nonzero;stroke-width:1.20012"
         id="path25"
         inkscape:connector-curvature="0" /><path
         d="m 492.9892,521.45953 c 0,-10.8903 -2.4544,-19.36013 -7.36198,-25.4107 -4.90759,-6.05057 -12.80725,-9.07465 -23.699,-9.07465 -2.28636,0 -4.67354,0.10081 -7.16034,0.30241 -2.488,0.20161 -4.94119,0.63842 -7.36197,1.31044 v 60.29926 c 2.15074,1.47844 5.00839,2.85727 8.57176,4.13411 3.56337,1.27684 7.36198,1.91526 11.39582,1.91526 8.87423,0 15.36246,-3.02409 19.46352,-9.07465 4.10106,-6.05057 6.15219,-14.18439 6.15219,-24.40148 z M 518,521.05632 c 0,8.06663 -1.04297,15.46123 -3.1265,22.18261 -2.08474,6.72259 -5.07681,12.50434 -8.97624,17.34409 -3.89942,4.83973 -8.77341,8.60423 -14.62314,11.29351 -5.84854,2.68927 -12.47119,4.0333 -19.86677,4.0333 -4.9748,0 -9.54633,-0.60481 -13.7146,-1.81445 -4.16827,-1.21082 -7.59722,-2.55487 -10.28684,-4.03451 V 611 H 423 V 471.64736 c 4.97599,-1.34524 11.09337,-2.62207 18.35454,-3.83171 C 448.61569,466.60482 456.28012,466 464.34782,466 c 8.33773,0 15.80052,1.27684 22.38838,3.83171 6.58905,2.55487 12.20235,6.21857 16.84229,10.9911 4.63875,4.77253 8.20211,10.5543 10.69012,17.34408 2.48679,6.78859 3.73139,14.4184 3.73139,22.88943 z"
         style="fill:#3c4b5a;fill-rule:nonzero;stroke-width:1.20011"
         id="path27"
         inkscape:connector-curvature="0" /><path
         d="m 537,521.00591 c 0,-9.30123 1.37492,-17.45591 4.12595,-24.46521 2.74984,-7.00931 6.40632,-12.83838 10.96942,-17.48839 4.56191,-4.65121 9.79451,-8.15587 15.699,-10.51396 5.90328,-2.3593 11.94191,-3.53835 18.11469,-3.53835 14.49054,0 25.79531,4.51527 33.91308,13.5458 8.11897,9.03174 12.17786,22.51016 12.17786,40.43768 0,1.34749 -0.0335,2.8646 -0.1006,4.54896 -0.0671,1.68555 -0.16768,3.20147 -0.30182,4.55015 h -69.43942 c 0.67068,8.49155 3.65646,15.06171 8.95733,19.71294 5.29967,4.65001 12.98149,6.97562 23.04547,6.97562 5.9033,0 11.30477,-0.5402 16.20202,-1.61818 4.89726,-1.07799 8.75493,-2.22335 11.57304,-3.43729 l 3.22052,20.01612 c -1.34138,0.67495 -3.18699,1.38237 -5.53561,2.12349 -2.34742,0.74112 -5.03139,1.41485 -8.05071,2.02242 -3.01811,0.60637 -6.27217,1.11168 -9.76096,1.51592 -3.4888,0.40425 -7.04467,0.60637 -10.66761,0.60637 -9.25915,0 -17.30985,-1.38116 -24.15211,-4.14471 -6.84346,-2.76354 -12.47968,-6.60507 -16.90744,-11.52457 -4.42778,-4.91951 -7.71537,-10.7161 -9.86278,-17.38854 C 538.0731,536.27095 537,528.95845 537,521.00591 Z m 70.64548,-10.91821 c 0,-3.36991 -0.46948,-6.57138 -1.40846,-9.60442 -0.93897,-3.03303 -2.31508,-5.66063 -4.12595,-7.88517 -1.81207,-2.22335 -4.02535,-3.97627 -6.64226,-5.25638 -2.61689,-1.28131 -5.73561,-1.92137 -9.35855,-1.92137 -3.75708,0 -7.04466,0.70743 -9.86278,2.1235 -2.8181,1.41484 -5.19906,3.26883 -7.14527,5.55956 -1.94501,2.29192 -3.45526,4.92071 -4.52837,7.88516 -1.0731,2.96567 -1.81206,5.99871 -2.21447,9.09912 z"
         style="fill:#3c4b5a;fill-rule:nonzero;stroke-width:1.20038"
         id="path29"
         inkscape:connector-curvature="0" /><path
         d="m 717.7869,492.26931 c -2.00567,-0.67394 -4.78138,-1.38159 -8.32593,-2.12292 -3.54453,-0.74135 -7.65736,-1.11202 -12.33845,-1.11202 -2.67542,0 -5.51799,0.26957 -8.52649,0.80874 -3.0097,0.53915 -5.11684,1.01091 -6.32025,1.41528 V 576 H 658 V 475.28104 c 4.68109,-1.75347 10.53216,-3.40464 17.55439,-4.95472 C 682.57663,468.77504 690.36771,468 698.92762,468 c 1.60574,0 3.47769,0.10109 5.61827,0.30328 2.13938,0.20218 4.27996,0.47176 6.42053,0.80873 2.13939,0.33697 4.2131,0.74255 6.21878,1.21431 2.00687,0.47176 3.6114,0.90983 4.8148,1.3142 z"
         style="fill:#3c4b5a;fill-rule:nonzero;stroke-width:1.19865"
         id="path31"
         inkscape:connector-curvature="0" /><path
         sodipodi:nodetypes="cccccccccccccc"
         d="M 259,424 H 360 V 359 L 30,34 H 90 L 385,324 670,34 h 60 L 410,359 v 84.99783 C 410,449 405,454 400,454 H 259 c -12,0 -14,-10 -14,-15 0,-5 2,-15 14,-15 z"
         style="fill:#b12f35"
         id="path35"
         inkscape:connector-curvature="0" /><rect
         id="rect12-6"
         style="clip-rule:evenodd;fill:#3c4b5a;fill-rule:nonzero;stroke-width:1.03281;stroke-linejoin:round;stroke-miterlimit:1.41421"
         height="158"
         width="24"
         y="418"
         x="191" /></g><g
       fill="#d41216"
       id="g1132"
       transform="matrix(0.0816102,0,0,0.0816102,18.407685,15.217343)"
       inkscape:label="Mainsail"><path
         d="M 382.29,142.98 132.98,522.82 0,522.68 344.3,0 c 7.88,49.06 20.9,97.68 37.99,142.98"
         id="path1126" /><path
         d="M 413.28,213.54 208.5,522.92 341.44,523.11 476.47,316.78 C 452.69,284.29 431.53,249.77 413.28,213.54 Z"
         id="path1128" /><path
         d="M 599.38,447.69 550.13,523.11 417,522.82 518.6,369.15 c 24.88,28.2 51.89,54.46 80.78,78.54 z"
         id="path1130" /></g><g
       id="shutterstock_1175287258"
       transform="matrix(0.11950507,0,0,0.11950507,128.57763,1.9905215)"
       style="fill:none;fill-rule:evenodd;stroke:none;stroke-width:1"><path
         d="m 234.444,327.531 74.622,62.063 c 0.84,0.719 1.744,1.334 2.693,1.842 v 0 l 0.012,0.006 0.284,0.147 0.108,0.054 0.193,0.094 0.178,0.084 0.134,0.062 0.234,0.104 0.072,0.03 c 1.682,0.716 3.459,1.111 5.243,1.189 v 0 l 0.061,0.003 0.284,0.009 0.112,0.002 0.23,10e-4 0.2,-10e-4 0.127,-0.002 0.298,-0.01 0.042,-0.001 c 1.788,-0.079 3.571,-0.474 5.258,-1.194 v 0 l 0.048,-0.02 0.266,-0.118 0.101,-0.046 0.194,-0.092 0.205,-0.099 0.088,-0.045 0.281,-0.146 0.03,-0.015 c 0.947,-0.507 1.849,-1.121 2.687,-1.839 v 0 l 69.764,-58.019 36.275,23.943 L 318.896,470.422 198.4,350.923 Z m 2.623,-92.834 73.398,47.211 c 2.61,1.715 5.521,2.573 8.432,2.574 2.908,0 5.816,-0.856 8.428,-2.57 v 0 l 73.402,-47.21 56.122,28.665 L 318.897,378.093 180.945,263.359 Z M 318.897,110.68 475.771,168.448 318.897,269.344 162.024,168.44 Z"
         id="Combined-Shape"
         fill="#2e75ae" /><path
         d="M 318.897,110.68 475.771,168.448 319,269.278 V 111 h -0.972 z"
         id="path1229"
         fill="#2196f3" /><path
         d="m 400.727,234.702 56.122,28.665 -137.849,114.64 1.1e-4,-93.52536 c 2.73511,-0.019 5.46713,-0.79535 7.94977,-2.33062 L 327.325,281.912 Z"
         id="path1231"
         fill="#2196f3" /><path
         d="M 398.493,331.574 434.768,355.517 319,470.319 V 393.22 h 0.104 l 0.127,-0.002 0.298,-0.01 0.042,-0.001 c 1.788,-0.079 3.571,-0.474 5.258,-1.194 v 0 l 0.048,-0.02 0.266,-0.118 0.101,-0.046 0.194,-0.092 0.205,-0.099 0.088,-0.045 0.281,-0.146 0.03,-0.015 c 0.947,-0.507 1.849,-1.121 2.687,-1.839 v 0 z"
         id="path1233"
         fill="#2196f3" /></g></g><g
     inkscape:groupmode="layer"
     id="layer3"
     inkscape:label="install_start"
     style="display:none"><text
       xml:space="preserve"
       transform="scale(0.26458333)"
       id="text5909"
       style="font-style:normal;font-variant:normal;font-weight:normal;font-stretch:normal;font-size:53.3333px;line-height:1.25;font-family:'DejaVu Sans';-inkscape-font-specification:'DejaVu Sans';letter-spacing:0px;word-spacing:0px;white-space:pre;shape-inside:url(#rect5911);display:inline;fill:#000000;fill-opacity:1;stroke:none"
       x="41.591797"
       y="0"><tspan
         x="73.958528"
         y="307.18747"
         id="tspan649"><tspan
           style="text-align:center;text-anchor:middle;fill:#cccccc"
           id="tspan647">Klipper Mod is installing.
</tspan></tspan><tspan
         x="215.06521"
         y="373.8541"
         id="tspan653"><tspan
           style="text-align:center;text-anchor:middle;fill:#cccccc"
           id="tspan651">Please wait ...</tspan></tspan></text></g><g
     inkscape:groupmode="layer"
     id="g5919"
     inkscape:label="install_ok"
     style="display:none"
     sodipodi:insensitive="true"><text
       xml:space="preserve"
       transform="scale(0.26458333)"
       id="text5917"
       style="font-style:normal;font-variant:normal;font-weight:normal;font-stretch:normal;font-size:53.3333px;line-height:1.25;font-family:'DejaVu Sans';-inkscape-font-specification:'DejaVu Sans';letter-spacing:0px;word-spacing:0px;white-space:pre;shape-inside:url(#rect5921);display:inline;fill:#000000;fill-opacity:1;stroke:none"
       x="41.591797"
       y="0"><tspan
         x="97.34393"
         y="307.18747"
         id="tspan657"><tspan
           style="text-align:center;text-anchor:middle;fill:#cccccc"
           id="tspan655">Installation successful.
</tspan></tspan><tspan
         x="111.56267"
         y="373.8541"
         id="tspan661"><tspan
           style="text-align:center;text-anchor:middle;fill:#cccccc"
           id="tspan659">Please restart printer.</tspan></tspan></text></g><g
     inkscape:groupmode="layer"
     id="g328"
     inkscape:label="uninstall_ok"
     style="display:none"><text
       xml:space="preserve"
       transform="scale(0.26458333)"
       id="text326"
       style="font-style:normal;font-variant:normal;font-weight:normal;font-stretch:normal;font-size:53.3333px;line-height:1.25;font-family:'DejaVu Sans';-inkscape-font-specification:'DejaVu Sans';letter-spacing:0px;word-spacing:0px;white-space:pre;shape-inside:url(#rect330);display:inline;fill:#000000;fill-opacity:1;stroke:none"
       x="41.591797"
       y="0"><tspan
         x="106.60174"
         y="307.18747"
         id="tspan665"><tspan
           style="text-align:center;text-anchor:middle;fill:#cccccc"
           id="tspan663">Klipper Mod removed.
</tspan></tspan><tspan
         x="111.56267"
         y="373.8541"
         id="tspan669"><tspan
           style="text-align:center;text-anchor:middle;fill:#cccccc"
           id="tspan667">Please restart printer.</tspan></tspan></text></g><g
     inkscape:groupmode="layer"
     id="g5935"
     inkscape:label="install_fail_mem"
     style="display:none"><text
       xml:space="preserve"
       transform="scale(0.26458333)"
       id="text5933"
       style="font-style:normal;font-variant:normal;font-weight:normal;font-stretch:normal;font-size:42.6667px;line-height:1.25;font-family:'DejaVu Sans';-inkscape-font-specification:'DejaVu Sans';letter-spacing:0px;word-spacing:0px;white-space:pre;shape-inside:url(#rect5937);display:inline;fill:#000000;fill-opacity:1;stroke:none"
       x="41.591797"
       y="0"><tspan
         x="105.98936"
         y="297.75003"
         id="tspan673"><tspan
           style="text-align:center;text-anchor:middle;fill:#cccccc"
           id="tspan671">Cannot install Klipper Mod. 
</tspan></tspan><tspan
         x="69.16642"
         y="351.0834"
         id="tspan677"><tspan
           style="text-align:center;text-anchor:middle;fill:#cccccc"
           id="tspan675">Not enough free space on data </tspan></tspan><tspan
         x="302.67701"
         y="404.41678"
         id="tspan681"><tspan
           style="text-align:center;text-anchor:middle;fill:#cccccc"
           id="tspan679">partition.</tspan></tspan></text></g><g
     inkscape:groupmode="layer"
     id="g5943"
     inkscape:label="install_fail_version"
     style="display:none"><text
       xml:space="preserve"
       transform="matrix(0.26458333,0,0,0.26458333,-0.68830655,1.8419292)"
       id="text5941"
       style="font-style:normal;font-variant:normal;font-weight:normal;font-stretch:normal;font-size:45.3333px;line-height:1.25;font-family:'DejaVu Sans';-inkscape-font-specification:'DejaVu Sans';letter-spacing:0px;word-spacing:0px;white-space:pre;shape-inside:url(#rect5945);display:inline;fill:#000000;fill-opacity:1;stroke:none"
       x="41.591797"
       y="0"><tspan
         x="77.420799"
         y="300.10935"
         id="tspan685"><tspan
           style="text-align:center;text-anchor:middle;fill:#cccccc"
           id="tspan683">Detected software or printer </tspan></tspan><tspan
         x="83.651915"
         y="356.77597"
         id="tspan691"><tspan
           style="text-align:center;text-anchor:middle;fill:#cccccc"
           id="tspan687">version not </tspan><tspan
           style="text-align:center;text-anchor:middle;fill:#cccccc"
           id="tspan689">compatible with </tspan></tspan><tspan
         x="258.27809"
         y="413.4426"
         id="tspan695"><tspan
           style="text-align:center;text-anchor:middle;fill:#cccccc"
           id="tspan693">Klipper Mod.</tspan></tspan></text></g><g
     inkscape:groupmode="layer"
     id="g5927"
     inkscape:label="install_fail_generic"
     style="display:none"><text
       xml:space="preserve"
       transform="scale(0.26458333)"
       id="text5925"
       style="font-style:normal;font-variant:normal;font-weight:normal;font-stretch:normal;font-size:48px;line-height:1.25;font-family:'DejaVu Sans';-inkscape-font-specification:'DejaVu Sans';letter-spacing:0px;word-spacing:0px;white-space:pre;shape-inside:url(#rect5929);display:inline;fill:#000000;fill-opacity:1;stroke:none"
       x="41.591797"
       y="0"><tspan
         x="114.33203"
         y="302.46875"
         id="tspan699"><tspan
           style="text-align:center;text-anchor:middle;fill:#cccccc"
           id="tspan697">An error occured during </tspan></tspan><tspan
         x="252.22656"
         y="362.46875"
         id="tspan703"><tspan
           style="text-align:center;text-anchor:middle;fill:#cccccc"
           id="tspan701">installation. 
</tspan></tspan><tspan
         x="140.40625"
         y="422.46875"
         id="tspan707"><tspan
           style="text-align:center;text-anchor:middle;fill:#cccccc"
           id="tspan705">Please restart printer.</tspan></tspan></text></g><g
     inkscape:groupmode="layer"
     id="g538"
     inkscape:label="uninstall_fail_generic"
     style="display:none"><text
       xml:space="preserve"
       transform="scale(0.26458333)"
       id="text536"
       style="font-style:normal;font-variant:normal;font-weight:normal;font-stretch:normal;font-size:48px;line-height:1.25;font-family:'DejaVu Sans';-inkscape-font-specification:'DejaVu Sans';letter-spacing:0px;word-spacing:0px;white-space:pre;shape-inside:url(#rect540);display:none;fill:#000000;fill-opacity:1;stroke:none"
       x="41.591797"
       y="0" /></g><g
     inkscape:groupmode="layer"
     id="g5951"
     inkscape:label="mod_start"
     style="display:none"><text
       xml:space="preserve"
       transform="matrix(0.26458333,0,0,0.26458333,0.04745027,4.4975118)"
       id="text5949"
       style="font-style:normal;font-variant:normal;font-weight:normal;font-stretch:normal;font-size:50.6667px;line-height:1.25;font-family:'DejaVu Sans';-inkscape-font-specification:'DejaVu Sans';letter-spacing:0px;word-spacing:0px;white-space:pre;shape-inside:url(#rect5953);display:inline;fill:#000000;fill-opacity:1;stroke:none"
       x="41.591797"
       y="0"><tspan
         x="88.973763"
         y="304.82815"
         id="tspan711"><tspan
           style="text-align:center;text-anchor:middle;fill:#cccccc"
           id="tspan709">Use Mainsail or Fluidd to </tspan></tspan><tspan
         x="85.819464"
         y="368.16153"
         id="tspan715"><tspan
           style="text-align:center;text-anchor:middle;fill:#cccccc"
           id="tspan713">control printer functions.</tspan></tspan></text></g><g
     inkscape:groupmode="layer"
     id="g539"
     inkscape:label="mod_shutdown"
     style="display:inline"><text
       xml:space="preserve"
       transform="matrix(0.26458333,0,0,0.26458333,0.04745027,4.4975118)"
       id="text537"
       style="font-style:normal;font-variant:normal;font-weight:normal;font-stretch:normal;font-size:50.6667px;line-height:1.25;font-family:'DejaVu Sans';-inkscape-font-specification:'DejaVu Sans';letter-spacing:0px;word-spacing:0px;white-space:pre;shape-inside:url(#rect541);display:inline;fill:#000000;fill-opacity:1;stroke:none"
       x="41.591797"
       y="0"><tspan
         x="41.251077"
         y="304.82815"
         id="tspan719"><tspan
           style="text-align:center;text-anchor:middle;fill:#cccccc"
           id="tspan717">It's now safe to turn off your </tspan></tspan><tspan
         x="308.74799"
         y="368.16153"
         id="tspan723"><tspan
           style="text-align:center;text-anchor:middle;fill:#cccccc"
           id="tspan721">printer. </tspan></tspan></text></g></svg>
